# xmcd
# Copyright (C) 1995-1998 Ti Kan
#
# Track frame offsets:
#       150
#       17215
#       37972
#       57107
#       79804
#       97115
#       119514
#       135783
#       152701
#       164293
#       180812
#       196389
#
# Disc length: 2943 seconds
#
# Revision: 0
# Processed by: cddbd v1.5.2PL0 Copyright (c) Steve Scherf et al.
# Submitted via: CD-Transfer v1.0
#
DISCID=8e0b7d0c
DTITLE=Various Artist - Bono, The Edge, A. Clayton, L. Mullen
DYEAR=08
DGENRE=
TTITLE0=Misterious Ways
TTITLE1=Bullet The Blue Sky
TTITLE2=Sunday Boody Sunday
TTITLE3=Sometimes You Can't Make It On Your Own
TTITLE4=Where The Streets Have No Name
TTITLE5=I Still Haven't Found What I'm Looking For
TTITLE6=One
TTITLE7=With Or Without You
TTITLE8=Pride (In The Name Of Love)
TTITLE9=Seconds
TTITLE10=Desire
TTITLE11=Love Is Blindness
EXTD=
EXTT0=
EXTT1=
EXTT2=
EXTT3=
EXTT4=
EXTT5=
EXTT6=
EXTT7=
EXTT8=
EXTT9=
EXTT10=
EXTT11=
PLAYORDER=
